<svg id="Capa_1" data-name="Capa 1" xmlns="http://www.w3.org/2000/svg" viewBox="0 0 857 210"><defs><style>.cls-1{fill:#00843e;}.cls-2{fill:#aaae07;}</style></defs><title>_isotipo_whiteMesa de trabajo 1</title><path class="cls-1" d="M142.85,138c.41,8.57,7,13.84,17.14,13.84a39.74,39.74,0,0,0,17.47-3.72l-.72,11.48A54.31,54.31,0,0,1,156.8,163c-20.89,0-29.67-13-29.67-28,0-16.85,10.24-28.53,27.19-28.53,18.58,0,26.14,14.06,26.14,31.53Zm21.9-9.93c0-7.44-4.23-11.67-11-11.67s-10.43,4.34-11.06,11.67Z"/><path class="cls-1" d="M216.22,107.68h24v10.54h-5.46L219.12,133l17,18.19h5.7v10.54H213.44V151.19h5.89V151a6.19,6.19,0,0,1-2.27-1.54l-7.25-7.67-8.26,7.67a6.42,6.42,0,0,1-2.27,1.54v.2h6.3v10.54h-24.9V151.19h5.48l17.25-16.12-15.92-16.84H181.6V107.68h28.53v10.54h-5.69v.2a15.13,15.13,0,0,1,3.22,2.59l5.17,5.47,5.89-5.47a14.17,14.17,0,0,1,3.2-2.59v-.2h-5.69Z"/><path class="cls-1" d="M248.38,118.22h-4.56V107.68h18.82a57.33,57.33,0,0,1-.94,10.23h.2c3.32-7.33,9.31-11.47,18.41-11.47,11.89,0,20.87,8.57,20.87,24.7C301.18,145.92,294,163,271,163a42.81,42.81,0,0,1-8.17-.94v11.38H269V184H242.47V173.42h5.9Zm14.15,31.52a31.81,31.81,0,0,0,9.21,1.45c10.44,0,15-8.78,15-18.39,0-7.44-2.7-14.57-11.68-14.57-9.61,0-12.51,6.91-12.51,13.64Z"/><path class="cls-1" d="M319.08,138c.41,8.57,7,13.84,17.13,13.84a39.76,39.76,0,0,0,17.48-3.72L353,159.57A54.18,54.18,0,0,1,333,163c-20.87,0-29.67-13-29.67-28,0-16.85,10.23-28.53,27.19-28.53,18.61,0,26.15,14.06,26.15,31.53ZM341,128c0-7.44-4.23-11.67-11-11.67s-10.42,4.34-11,11.67Z"/><path class="cls-1" d="M398.13,96.51h-8.25V86h22.73v65.23h6.2v10.54H398.44a41.9,41.9,0,0,1,1.23-10.42h-.2c-3.3,7.54-9.29,11.67-18.39,11.67-11.88,0-22-8.58-22-24.71,0-14.78,7.13-31.82,30.18-31.82a35.46,35.46,0,0,1,8.89,1.24Zm-.42,23.67a23.17,23.17,0,0,0-9.19-2c-10.44,0-14.36,8.27-14.36,16.63s4,15.72,11.05,15.72c7.65,0,12.5-6.81,12.5-15.09Z"/><path class="cls-1" d="M428.51,118.22h-7V107.68H443v43.51h6.19v10.54H422.62V151.19h5.89Z"/><path class="cls-1" d="M486,127.32c0-8.17-3.4-10.34-10.25-10.34a32.6,32.6,0,0,0-9,1.55v7.23h-12.4V112a47.34,47.34,0,0,1,21.6-5.59c14.47,0,23.67,5.06,23.67,20.78,0,8.89-.31,16.33-.51,24h6.09v10.54H487v-3.31a28.46,28.46,0,0,1,.71-7.43h-.22c-3.6,8.17-8.57,12-17.67,12-12.19,0-18.07-7.24-18.07-15.7,0-7.77,5.16-12.82,10.85-14.89,5.46-2,12.81-2.49,23.35-2.49Zm-4.25,11.47c-11.77,0-15.48,2.47-15.48,7.13,0,3.21,2.27,6.51,8,6.51s11.57-3.71,11.57-13.64Z"/><path class="cls-1" d="M509.44,100.23l14.47-.82v8.27h15.73v10.54H523.91V142.3c0,7.65,2,9.5,8,9.5a20.73,20.73,0,0,0,7-1.64l-.51,10.23c-5.38,1.85-9.11,2.58-12.61,2.58-10.66,0-16.34-5-16.34-14.47V118.22h-7.33V107.68h7.33Z"/><path class="cls-1" d="M571.55,107.68h21.29v43.51h6.31v10.54H578.9c0-3.61,0-8.57,1.33-11.16H580c-3.4,8.58-9.39,12.41-18.69,12.41-12.31,0-18.21-7.44-18.21-18.92V118.22H535.9V107.68h21.7V138c0,7.65.83,13.22,9.5,13.22,6.21,0,11.28-5,11.28-13.54V118.22h-6.83Z"/><path class="cls-1" d="M609.08,118.22h-7V107.68h21a82.22,82.22,0,0,1-.94,12.4h.21c2.16-9.08,7.24-13.64,15.5-13.64a22.57,22.57,0,0,1,4.75.62L641.63,120a24.6,24.6,0,0,0-4.64-.52c-7.86,0-13.45,5.37-13.45,14.25v17.47h6.83v10.54H603.18V151.19h5.9Z"/><path class="cls-1" d="M648.68,144.88c5.49,0,9.73,3.21,9.73,9.3,0,5.17-3.52,9.31-9.73,9.31s-9.72-4.14-9.72-9.31C639,148.09,643.21,144.88,648.68,144.88Z"/><polygon class="cls-2" points="715.89 101.64 688.93 139.37 735.22 103.15 715.89 101.64"/><path class="cls-2" d="M615.88,82.75s35.68,5.15,39.31,5.6a17.19,17.19,0,0,0,9.56-1.41c5.63-2.2,149.91-53.46,150.41-53.38s-143.46,59.3-143.46,59.3,3.37,11.45,5.79,18.51c3.83,11.22,8.08,20.68,8.08,20.68L708,99.71A23.57,23.57,0,0,1,713,95.15c18.25-10.7,104.54-58.83,104.91-58.84s-92.61,59.37-92.61,59.37l53.32,3.09L834.87,26Z"/></svg>