<svg xmlns="http://www.w3.org/2000/svg" viewBox="0 0 595.28 167.99"><defs><style>.cls-1{fill:#de443b;}</style></defs><title>travelplan-logo</title><g id="Capa_1" data-name="Capa 1"><path class="cls-1" d="M563,126.47H540.71c.07-1.29.16-2.58.19-3.88q.41-19.06.79-38.12a12,12,0,0,0-.29-2.66c-.69-3.32-3-5.25-6-5.05-3.74.25-6.64,2.73-6.59,6.15.21,14.23.58,28.45.88,42.67a5,5,0,0,1-.15.78H508V64.12c1-.05,2.43-.17,3.81-.18,3.4,0,6.82.15,10.21-.06,2.72-.17,4.54.44,4.95,3.43a9,9,0,0,0,.85,2l2.65-2c7.78-5.95,18-6.53,24.7-1.32,5.29,4.08,6.88,9.86,7,16.16.14,11.82.11,23.64.24,35.46C562.35,120.4,562.76,123.24,563,126.47Z"/><path class="cls-1" d="M94,37.82V52c-5.59-.24-11-.41-16.44-.73-2.52-.15-3.39.71-3.37,3.34.15,19,.09,38,.23,56.93,0,4.9.56,9.79.88,14.91H51.65c.2-22.29.4-44.38.58-66.47,0-2-.3-3.94-.19-5.9.13-2.36-1-2.92-3.07-2.79-5.08.33-10.17.58-15.26.86l-1.46.11V37.82Z"/><path class="cls-1" d="M166.7,123.19a25.4,25.4,0,0,1-15,4.46c-8.75-.33-15.55-4.9-18.28-12.52-2.68-7.46-.16-16,6.28-21.55A40,40,0,0,1,153.73,86q3.57-1.16,7.17-2.23c4.27-1.28,4.8-3,2-6.56-2.11-2.62-5-3.35-8.18-3.16a30.25,30.25,0,0,0-13.6,4.58l-2.66,1.59c0-5.49,0-10.54.06-15.59,0-.45.81-1.2,1.31-1.26,11.82-1.43,23.57-1.94,34.75,3.3,7.39,3.46,10.81,9.75,11.42,17.53.44,5.61.22,11.27.23,16.9,0,8.16.21,16.28,2.91,24.12a5.53,5.53,0,0,1,0,1.39c-6.28,0-12.53.16-18.75-.14C169.19,126.4,168.11,124.51,166.7,123.19Zm-.39-28.6c-3.18,0-7.12,1.84-9.79,4.43a11.44,11.44,0,0,0-3.73,9.13,7.59,7.59,0,0,0,5.81,7.17c3,.67,7.57-1.18,7.64-3.39C166.44,106.16,166.31,100.37,166.31,94.59Z"/><path class="cls-1" d="M248.36,63.94c-1.57,5.8-2.73,11.32-4.56,16.61-5,14.36-10.25,28.61-15.32,42.94-.83,2.35-2,3.41-4.67,3.2a97.23,97.23,0,0,0-9.93,0,2.74,2.74,0,0,1-3-2C203.08,106,196.32,87,191.85,67.2c-.21-.93-.26-1.9-.44-3.26,4.83,0,9.37,0,13.91,0,2.4,0,5.53-.68,7,.54S213.47,69,214,71.28q3.55,14.73,7.16,29.45a2.76,2.76,0,0,0,1.38,1.67c1.09-4,2.36-7.92,3.24-12,1.78-8.12,3.32-16.29,5.05-24.42.16-.77,1-2,1.55-2C237.57,63.88,242.74,63.94,248.36,63.94Z"/><path class="cls-1" d="M413.38,37.77h21.11v88.67H413.38Z"/><path class="cls-1" d="M313,37.79H334.1v88.59H313Z"/><path class="cls-1" d="M90.24,64c6.21,0,12.45-.06,18.69.09.59,0,1.4,1.22,1.66,2,.57,1.77.85,3.63,1.37,6,1-1,1.59-1.67,2.21-2.33,3.62-3.93,7.78-6.86,13.29-7.35,3.08-.28,3.59.17,3.59,3.27q0,6,0,12.08a2.71,2.71,0,0,1-.24.75c-1.35,0-2.67-.09-4,0-6.93.54-11.36,4.87-12.77,12.69-1.87,10.4-1.1,20.85-.33,31.3.09,1.23.2,2.46.32,3.91H91.2C91.67,105.62,92.81,84.92,90.24,64Z"/><path class="cls-1" d="M401.5,77.55c-4.81-13.36-19.44-20.15-32.61-10.88a17.23,17.23,0,0,1-2.13,1.05c-.21-3.84-2.57-4.05-5.31-3.8-1.24.12-2.51,0-3.76,0h-11v86.27h21.08v-22.7c.87.08,1.49.11,2.1.21,7.73,1.27,14.52-.81,20.51-5.72C403.56,111.27,406.45,91.3,401.5,77.55Zm-21.64,31.7c-1.24,3-3.15,5.43-6.36,6.5-3.53,1.18-5.86-.44-5.9-4.12,0-4.74,0-9.47,0-14.21s0-9.3,0-13.94c0-3.33,1.25-5.45,3.59-6.27,3-1.06,6.43-.27,8,2.52a23.48,23.48,0,0,1,2.78,7.7A38.79,38.79,0,0,1,379.87,109.25Z"/><path class="cls-1" d="M496.76,92.91c0-2.86.08-5.75-.21-8.59-.93-9-5.35-15.58-14.07-18.86-7.61-2.86-15.54-3.28-23.54-3-3.26.12-6.52.6-9.87.93V80a25.84,25.84,0,0,1,2.79-1.55,115.8,115.8,0,0,1,11.52-4.22,9.44,9.44,0,0,1,9.28,2.2c3.64,3.47,3.05,5.91-1.6,7.36-7.08,2.21-14.22,4.24-20.19,9-9.75,7.86-10.81,21.53-2.16,29.67,6.07,5.72,17.23,6.76,25.43,2.37l3.79-2.06c.86,4,3.67,3.87,6.55,3.77s5.91,0,8.86,0h6.73C495.87,115.3,496.87,104.06,496.76,92.91Zm-20,19c0,.68-.89,1.53-1.57,2a7.55,7.55,0,0,1-7.89.74c-2.62-1.3-3.81-3.7-4-6.56-.45-6.65,6.31-13.56,13.53-13.51C476.84,100.39,476.89,106.18,476.77,112Z"/><path class="cls-1" d="M298.89,109.65c-1.13.93-1.93,1.64-2.78,2.28-8.44,6.41-18.18,4.17-22-5-.92-2.2-.68-3.23,1.78-4.07,9.22-3.14,18.37-6.48,27.5-9.86.86-.32,2.05-1.46,2-2.2-.16-7.7-2.15-14.85-7.3-20.81-9.26-10.7-27.87-9.67-37.72,0-6.81,6.7-9.82,15-10.22,24.37-.35,8.18,1.39,15.9,6.53,22.46,8.08,10.32,19,12.68,31.29,10.36a31.93,31.93,0,0,0,17.5-10Zm-25.8-31.89c1.36-2.41,3.49-3.95,6.37-3.67s4.57,2.43,5.13,5.12a22.28,22.28,0,0,1,.38,6.37,3.78,3.78,0,0,1-1.89,2.65c-3.82,1.68-7.77,3.08-12.13,4.75C270.32,87.24,270.52,82.31,273.09,77.76Z"/></g></svg>